<?xml version="1.0" encoding="UTF-8"?>
<svg id="Livello_2" data-name="Livello 2" xmlns="http://www.w3.org/2000/svg" width="173.71mm" height="176.24mm" viewBox="0 0 492.4 499.59">
  <defs>
    <style>
      .cls-1 {
        fill: #010101;
      }
    </style>
  </defs>
  <g id="Livello_1-2" data-name="Livello 1">
    <path class="cls-1" d="M358.94,474.32c-33.02,16.18-70.13,25.27-109.38,25.27C111.71,499.59,0,387.72,0,249.79c0-42.45,10.61-82.43,29.28-117.48,122.05-14.68,402.88-36.39,425.92,70.76,27.34,127.02-332.31,77.2-332.31,77.2,0,0,87.9,48.27,152.83,106.66,33.96,30.52,61.26,60.17,83.21,87.39m81.89-148.68c-88,19.54-168.29,4.74-168.29,4.74,0,0,40.31,37.8,79.52,88.67,11.54,14.93,21.41,28.93,30.23,42.26,54.58-34.39,94.88-89.31,110.11-153.94-14.49,7.6-31.56,13.9-51.57,18.28m-63.47-241.48c27.41,3.02,51.81,9.19,73.14,17.48C405.04,40.02,331.98,0,249.55,0,158.32,0,78.61,48.98,35.07,122.1c79.56-20.94,221.94-51.15,342.29-37.95"/>
  </g>
</svg>