<?xml version="1.0" encoding="utf-8"?>
<!-- Generator: Adobe Illustrator 27.4.0, SVG Export Plug-In . SVG Version: 6.00 Build 0)  -->
<svg version="1.1" id="Livello_2_00000138561619887696340420000016372879307567536300_"
	 xmlns="http://www.w3.org/2000/svg" xmlns:xlink="http://www.w3.org/1999/xlink" x="0px" y="0px" viewBox="0 0 492.4 499.6"
	 style="enable-background:new 0 0 492.4 499.6;" xml:space="preserve">
<style type="text/css">
	.st0{fill:#FFFFFF;}
</style>
<g id="Livello_1-2">
	<path class="st0" d="M358.9,474.3c-33,16.2-70.1,25.3-109.4,25.3C111.7,499.6,0,387.7,0,249.8c0-42.4,10.6-82.4,29.3-117.5
		c122-14.7,402.9-36.4,425.9,70.8c27.3,127-332.3,77.2-332.3,77.2s87.9,48.3,152.8,106.7C309.7,417.4,337,447.1,358.9,474.3
		 M440.8,325.6c-88,19.5-168.3,4.7-168.3,4.7s40.3,37.8,79.5,88.7c11.5,14.9,21.4,28.9,30.2,42.3c54.6-34.4,94.9-89.3,110.1-153.9
		C477.9,315,460.8,321.3,440.8,325.6 M377.4,84.2c27.4,3,51.8,9.2,73.1,17.5C405,40,332,0,249.6,0C158.3,0,78.6,49,35.1,122.1
		C114.6,101.2,257,70.9,377.4,84.2"/>
</g>
</svg>
